PathFileType	3	(X/Y/Z)	D:\Jess\PFP\Labelled\PA12\20250811\SRRun01.trc
DataRate	CameraRate	NumFrames	NumMarkers	Units	OrigDataRate	OrigDataStartFrame	OrigNumFrames
250.0	250.0	4	37	mm	250.0	35312	2501
Frame#	Time	C7			T10			CLAV			LSHO			RSHO			LASIS			RASIS			LPSIS			RPSIS			LILCR			RILCR			LGTR			LTHI			LLTHI			LLEP			LMEP			LPSH			LLSH			LDSH			LLMAL			LMMAL			LTOE			L5TH			LHEE			RGTR			RTHI			RLTHI			RLEP			RMEP			RPSH			RLSH			RDSH			RLMAL			RMMAL			RTOE			R5TH			RHEE			
		X1	Y1	Z1	X2	Y2	Z2	X3	Y3	Z3	X4	Y4	Z4	X5	Y5	Z5	X6	Y6	Z6	X7	Y7	Z7	X8	Y8	Z8	X9	Y9	Z9	X10	Y10	Z10	X11	Y11	Z11	X12	Y12	Z12	X13	Y13	Z13	X14	Y14	Z14	X15	Y15	Z15	X16	Y16	Z16	X17	Y17	Z17	X18	Y18	Z18	X19	Y19	Z19	X20	Y20	Z20	X21	Y21	Z21	X22	Y22	Z22	X23	Y23	Z23	X24	Y24	Z24	X25	Y25	Z25	X26	Y26	Z26	X27	Y27	Z27	X28	Y28	Z28	X29	Y29	Z29	X30	Y30	Z30	X31	Y31	Z31	X32	Y32	Z32	X33	Y33	Z33	X34	Y34	Z34	X35	Y35	Z35	X36	Y36	Z36	X37	Y37	Z37	

313	141.244	900.6175849083489	1524.593724416132	-319.4364955424721	799.5775751125935	1244.144947580749	-352.4319639151182	1051.488622859672	1389.210170909499	-335.2169183267944	945.9871195693662	1527.640776980114	-477.4947280163337	959.9198039788545	1482.162486051279	-170.4882433600647	1002.388017324832	962.2037448854959	-460.2164823932239	1005.107213431914	979.1478406884912	-223.0991968589548	795.5424136784526	1032.1259242898	-364.8449527024843	793.1569424565408	1036.020596659293	-322.8292963508795	927.8505798015693	1052.199995754019	-529.3446833842962	881.928671353908	1065.402488039199	-154.5838402556389	971.258743023692	867.0085686074232	-529.7470830533613	1127.392107746769	770.9996551578245	-422.8899781668352	1084.694857113597	641.796907085093	-516.2945258490314	1106.6424428218	529.6091189377856	-493.0470975797953	nan	nan	nan	1100.212713862119	441.4624668695894	-436.1617667274068	947.8687443909643	427.8477162302888	-503.3653454270124	893.2305873134185	311.3194538648797	-439.015070888623	772.5642455059427	288.7531770109269	-477.4030813880086	nan	nan	nan	833.5223215023856	136.1399012180807	-481.7228791505053	786.1404442181806	149.4446013334019	-517.8461720218453	702.2532614236864	325.1887257715165	-426.0301956094953	889.9546410975807	874.2004956337181	-136.8383441149685	1051.40110527917	693.9462372758151	-232.9239088677547	922.7981672929079	611.7383393326315	-187.2699235001458	915.4534862446169	482.1210977926115	-212.4831795168056	nan	nan	nan	934.4516612146847	384.74867903004	-289.1959329152514	820.3957494061207	308.4739973924882	-228.9839679666258	809.4340527700525	190.3660450689555	-312.5776469269516	717.7939311185612	119.4455836483841	-282.1756727857418	nan	nan	nan	852.6492154201339	61.36523757133232	-277.7244380884549	808.884026179693	45.06445978729209	-234.0208232649025	629.0401429019226	98.04677455110843	-345.681208250482	
314	141.248	900.5933098705888	1526.721764263436	-318.7187555363021	799.4285721685463	1246.161843968168	-351.2763777227285	1051.168829287234	1391.634354504398	-336.3881817354325	944.1412592113998	1529.965892346129	-477.4090583076562	961.6229415023615	1484.940885312135	-170.9137099157497	1002.065380107068	964.8499686680013	-460.1344892384988	1004.874223550669	980.6814470354084	-223.0852844267988	795.2478346351982	1034.545069253644	-365.0057300610485	792.814395974842	1038.359220190014	-322.9372347154337	927.0215603531453	1054.794848784978	-529.4804633973977	882.3726834010664	1066.913635396962	-154.4615465480253	972.1349906115103	870.8653613342468	-530.2412799472353	1127.964033361383	775.6730738663379	-422.6614659219619	1086.771011154554	645.85712161526	-515.9967150999543	1109.377929535548	533.8842094722863	-492.4848007327081	nan	nan	nan	1105.497489406856	445.2025072260574	-436.0397585263739	953.3764227305589	427.0337424667389	-502.7138739034025	902.9202264091506	308.2525019109318	-438.8381278361556	782.9071723939323	281.6631500223655	-476.8833994026001	nan	nan	nan	849.5180832505965	131.566359317657	-482.0825494689311	801.4970540128676	143.1332097743768	-517.9228925934747	711.4650573088646	315.227810223674	-425.069485009716	887.4388346680951	875.7145394987347	-137.4271463686886	1046.420653355755	693.4568442971733	-233.6558920816973	916.3830122166748	613.2498172141444	-187.9429410049758	906.9596164836074	483.7672042812914	-212.8103265809161	nan	nan	nan	925.1561577116472	385.8110833958888	-289.472067783634	810.6368834695511	310.3681954251561	-229.1194653093793	799.5017486969373	191.6902945268982	-312.4111891536	707.6385080558247	120.9999311409526	-282.0378604533007	nan	nan	nan	841.8428966499155	61.25819885232543	-277.6974705154097	797.9547320544816	45.27354352083536	-234.0895593234119	618.7867701997985	100.2742497513839	-345.4906684980606	
315	141.252	900.6017824542541	1528.971458155251	-318.0667577438825	799.3455617846041	1248.280001328679	-350.052262073564	1050.908159255211	1394.187573886557	-337.5935601826507	942.3119626824293	1532.380681294235	-477.3267477553266	963.3721323972264	1487.885311656953	-171.4027351960194	1001.812841145525	967.5472534215074	-460.0252130426426	1004.645692219044	982.2251082880975	-223.057251430254	795.0219672207377	1037.092316187058	-365.2483449178445	792.5280630366875	1040.813716740872	-323.1213843823426	926.3173109782604	1057.573727991699	-529.6075510600889	882.8916375642259	1068.485801240981	-154.3885112877059	973.0987428453196	874.8691099694094	-530.7339698731408	1128.453638188549	780.2724873758849	-422.3704963870751	1088.658331109421	649.9078500359366	-515.7204773024309	1111.743078675931	538.0814717745437	-491.9609624773663	nan	nan	nan	1110.482447327268	448.9348890449299	-435.9666199323782	958.7299756246863	426.0890537496171	-502.0360801964352	912.6891861791696	305.1596542227849	-438.6432403403346	793.4547441976906	274.4781777504431	-476.2819494101043	nan	nan	nan	865.7140641875499	127.146928321335	-482.4311585252381	817.0870050690454	136.9257087909498	-517.9638519041686	721.011470444881	305.0788682850019	-423.9765719095998	884.9665401523223	877.3840136660235	-138.1223599417975	1041.458493618193	693.2020121760897	-234.623628796805	910.0514637042781	614.9990595525812	-188.6036932921231	898.4118193189852	485.6867720964673	-213.1074779766319	nan	nan	nan	915.8675882361266	387.0979845565974	-289.64108368147	800.8591622411273	312.5155990103672	-229.1960525673757	789.6391740062777	193.19038845167	-312.1747570848816	697.5877093339233	122.7099181976381	-281.8313520880729	nan	nan	nan	831.0710814684048	61.15750332379085	-277.6292873019462	787.0403600108309	45.48075100577085	-234.134226222556	608.6444883808549	102.752104824	-345.233217663668	
316	141.256	900.6390935155925	1531.333386189852	-317.4925154642387	799.330269493686	1250.489238862232	-348.7617130439227	1050.705699038954	1396.854797545819	-338.830204399771	940.5071742368531	1534.873649677159	-477.2477833868448	965.1581731204454	1490.979529745317	-171.9540958446883	1001.627311522046	970.2982641229794	-459.9023156077182	1004.424204766133	983.776841286169	-223.0257768914727	794.8639922790727	1039.754798066584	-365.5620551559448	792.2993232976665	1043.372348312342	-323.3715995838986	925.7379719678961	1060.536059733484	-529.7323141737237	883.4895821472852	1070.11550074	-154.3668792687494	974.1277705804159	878.9995005110048	-531.2226368791197	1128.862523279979	784.7907796492444	-422.0172868156137	1090.36346072291	653.9352888085872	-515.4619396324414	1113.741104271752	542.1683413060638	-491.4786285567452	nan	nan	nan	1115.161694904686	452.6359119023941	-435.9372229680075	963.9449941739473	424.9957001443681	-501.3376097539175	922.537300021468	302.0506131623915	-438.4292120143822	804.2186980817188	267.2206464704784	-475.6043815426122	nan	nan	nan	882.0995502630302	122.905145616682	-482.7641106931816	832.9075742498134	130.8476471675642	-517.9695961896211	730.9107917212183	294.7761725195144	-422.7650396587472	882.5622038671352	879.1953081758281	-138.9167367169937	1036.5288945078	693.15538866195	-235.8041031078602	903.807596654544	616.9691924794221	-189.2466894084839	889.8249832894979	487.8637870828376	-213.3678515093199	nan	nan	nan	906.5993348454624	388.6014353549739	-289.7029574837723	791.0888123639104	314.9029553150344	-229.2094601606419	779.8608872418951	194.866528349093	-311.8637464993676	687.6550483595557	124.5773072319948	-281.5505247750608	nan	nan	nan	820.3415146739605	61.06401677110053	-277.5153721266673	776.1457457094639	45.68500763532539	-234.1506423704032	598.627582928465	105.4839212685615	-344.9068330219895	
